<?xml version="1.0" encoding="utf-8"?>
<!-- Generator: Adobe Illustrator 24.2.1, SVG Export Plug-In . SVG Version: 6.00 Build 0)  -->
<svg version="1.1" id="Layer_1" xmlns:sketch="http://www.bohemiancoding.com/sketch/ns"
	 xmlns="http://www.w3.org/2000/svg" xmlns:xlink="http://www.w3.org/1999/xlink" x="0px" y="0px" viewBox="0 0 150 150"
	 style="enable-background:new 0 0 150 150;" xml:space="preserve">
<style type="text/css">
	.st0{fill:#ED8B00;}
	.st1{fill:#FBB040;}
	.st2{fill:#FFFFFF;}
	.st3{fill:#EAEAE9;}
	.st4{fill:#F5A86C;}
	.st5{fill:#005EB8;}
	.st6{fill:#123155;}
</style>
<g>
	<polygon class="st0" points="113.7,74.1 136.2,85.9 131.9,61 150,43.3 125,39.6 113.7,17 	"/>
	<polygon class="st1" points="113.7,17 102.5,39.6 77.5,43.3 95.6,61 91.3,85.9 113.7,74.1 	"/>
	<polygon class="st2" points="125,51.2 117.2,50.1 113.7,43 110.3,50.1 102.5,51.2 108.1,56.6 106.8,64.3 113.7,60.7 120.7,64.3 
		119.3,56.6 	"/>
</g>
<g>
	<polygon class="st0" points="51.6,40.8 67.6,49.3 64.5,31.4 77.5,18.8 59.6,16.2 51.6,0 	"/>
	<polygon class="st1" points="51.6,0 43.6,16.2 25.7,18.8 38.7,31.4 35.6,49.3 51.6,40.8 	"/>
	<polygon class="st2" points="59.6,24.4 54.1,23.6 51.6,18.6 49.1,23.6 43.6,24.4 47.6,28.3 46.7,33.9 51.6,31.3 56.5,33.9 
		55.6,28.3 	"/>
</g>
<path class="st3" d="M133.3,95.2l1,3.8c1.6,5.8,6.1,10.3,11.8,11.8l3.8,1l-3.8,1c-5.8,1.6-10.3,6.1-11.8,11.8l-1,3.8l-1-3.8
	c-1.6-5.8-6.1-10.3-11.8-11.8l-3.8-1l3.8-1c5.8-1.6,10.3-6.1,11.8-11.8L133.3,95.2z"/>
<path class="st3" d="M12.9,45.5l0.8,2.9c1.2,4.5,4.7,8,9.2,9.2l2.9,0.8l-2.9,0.8c-4.5,1.2-8,4.7-9.2,9.2l-0.8,2.9l-0.8-2.9
	c-1.2-4.5-4.7-8-9.2-9.2L0,58.5l2.9-0.8c4.5-1.2,8-4.7,9.2-9.2L12.9,45.5z"/>
<g>
	<path class="st4" d="M93.1,106.7c3.6-3.6,3.7-9.3,0.2-13c-1.9-2.1-4.4-3.2-7.2-3.2c-6.7,0-13.5,0-20.2,0c-0.4,0-0.7,0.1-1.1-0.2
		c0.6-2.2,1.3-4.4,1.9-6.6c0.4-1.4,1-2.7,1.1-4.2c0-1.9,0.1-3.8-0.1-5.7c-0.3-4.1-1.9-7.5-4.7-10.4c-3-3.1-6.8-4.7-11.1-5
		c-3-0.2-4.8,1.6-4.8,4.5c0,3.3,0,6.6,0,9.8c0,0.5-0.1,0.9-0.4,1.3c-2.5,3.4-5.4,6.4-8.1,9.6c-2.2,2.5-4.4,5-6.7,7.4
		c-1.7,1.9-3.5,3.7-5.3,5.6c0,0.4-0.1,0.7-0.1,1.1c0,6.7,0,13.5,0,20.2c0,0,0.1,0,0.1,0c0,6.3,0,12.6,0,18.9c0,2.3,0,4.6,0,6.9
		c2.3,0.8,4.6,1.6,6.8,2.5c6,2.5,12.3,3.6,18.8,3.5c9.1-0.1,18.2,0,27.2,0c0.9,0,1.7,0,2.6-0.2c4.9-1,8.5-5.8,7.5-11.2
		c-0.3-1.4-0.9-2.7-1.7-4c0.2-0.1,0.3-0.2,0.4-0.2c3.7-3,4.7-8.5,2-12.6c-0.3-0.4-0.2-0.7,0.2-1c0.8-0.7,1.6-1.5,2.1-2.5
		c2-3.6,1.7-7-0.6-10.5C92.3,107.5,92.7,107.1,93.1,106.7z"/>
	<rect x="19.8" y="93.3" class="st3" width="8.4" height="52.4"/>
	<rect y="88.6" class="st5" width="19.7" height="30.7"/>
	<rect y="119.3" class="st6" width="19.7" height="30.7"/>
</g>
</svg>
