<?xml version="1.0" encoding="utf-8"?>
<!-- Generator: Adobe Illustrator 21.1.0, SVG Export Plug-In . SVG Version: 6.00 Build 0)  -->
<svg version="1.1" id="Layer_1" xmlns:sketch="http://www.bohemiancoding.com/sketch/ns"
	 xmlns="http://www.w3.org/2000/svg" xmlns:xlink="http://www.w3.org/1999/xlink" x="0px" y="0px" viewBox="0 0 150 150"
	 style="enable-background:new 0 0 150 150;" xml:space="preserve">
<style type="text/css">
	.st0{fill:#005EB8;}
	.st1{fill:#ED8B00;}
	.st2{fill:#FBB040;}
	.st3{fill:#EAEAE9;}
	.st4{fill:#123155;}
	.st5{fill:#FAFAFA;}
	.st6{fill:#BCBCBC;}
	.st7{fill:#123155;stroke:#123155;}
	.st8{fill:none;stroke:#ED8B00;stroke-width:0;stroke-linecap:round;stroke-linejoin:round;}
	.st9{fill:#D1D1D1;}
	.st10{fill:#FFFFFF;}
</style>
<g>
	<g>
		<g>
			<g>
				
					<rect x="22.7" y="18.1" transform="matrix(0.7071 -0.7071 0.7071 0.7071 -9.8486 28.0942)" class="st4" width="12.7" height="15.6"/>
			</g>
		</g>
		<g>
			
				<rect x="93.7" y="19.6" transform="matrix(0.7071 -0.7071 0.7071 0.7071 11.395 79.3827)" class="st4" width="15.6" height="12.7"/>
		</g>
		<circle class="st5" cx="65.3" cy="68.8" r="48.4"/>
		<path class="st3" d="M65.3,20.4C65.2,20.4,65.2,20.4,65.3,20.4l0,96.8c0,0,0,0,0,0c26.7,0,48.4-21.7,48.4-48.4S92,20.4,65.3,20.4z
			"/>
		<g>
			<path class="st6" d="M65.2,47.1V30.5c0.1,0,0.2,0,0.3,0c21.1,0,38.3,17.1,38.3,38.3c0,0.1,0,0.2,0,0.2H87.2c0-0.1,0-0.2,0-0.2
				c0-12-9.7-21.7-21.7-21.7C65.4,47.1,65.3,47.1,65.2,47.1z"/>
		</g>
		<path class="st0" d="M69.9,16V8.2h-9.3V16c-27.1,2.4-48.4,25.1-48.4,52.8c0,29.2,23.8,53,53,53s53-23.8,53-53
			C118.3,41.1,97,18.3,69.9,16z M65.3,112.5c-24.1,0-43.7-19.6-43.7-43.7s19.6-43.7,43.7-43.7S109,44.7,109,68.8
			S89.4,112.5,65.3,112.5z"/>
		<path class="st0" d="M69.9,16V8.2h-4.7v16.9c0,0,0,0,0,0c24.1,0,43.7,19.6,43.7,43.7s-19.6,43.7-43.7,43.7c0,0,0,0,0,0v9.3
			c0,0,0,0,0,0c29.2,0,53-23.8,53-53C118.3,41.1,97,18.3,69.9,16z"/>
		<g>
			<g>
				<rect x="54.9" class="st4" width="20.7" height="12.7"/>
			</g>
		</g>
		<g>
			<g>
				<rect x="65.2" class="st4" width="10.4" height="12.7"/>
			</g>
		</g>
		<g>
			<path class="st7" d="M49.8,56.7L37.8,68.8l12.1,12.1l3.5-3.5l-8.6-8.6l8.6-8.6L49.8,56.7z"/>
			<path class="st7" d="M77.2,60.2l8.6,8.6l-8.6,8.6l3.5,3.5l12.1-12.1L80.7,56.7L77.2,60.2z"/>
			<path class="st7" d="M57.4,76.6l11.5-19.2l4.2,2.5L61.6,79.1L57.4,76.6z"/>
		</g>
	</g>
	<g>
		<g>
			<polygon class="st1" points="110.8,100.4 134.7,63.7 102.5,63.7 78.7,108.9 98.1,108.9 81.3,150 81.3,150 137.8,100.4 			"/>
		</g>
		<g>
			<polygon class="st2" points="81.3,150 81.3,150 137.8,100.4 123.1,100.4 			"/>
		</g>
	</g>
</g>
</svg>
