<?xml version="1.0" encoding="utf-8"?>
<!-- Generator: Adobe Illustrator 21.1.0, SVG Export Plug-In . SVG Version: 6.00 Build 0)  -->
<svg version="1.1" id="Layer_1" xmlns:sketch="http://www.bohemiancoding.com/sketch/ns"
	 xmlns="http://www.w3.org/2000/svg" xmlns:xlink="http://www.w3.org/1999/xlink" x="0px" y="0px" viewBox="0 0 150 150"
	 style="enable-background:new 0 0 150 150;" xml:space="preserve">
<style type="text/css">
	.st0{fill:#005EB8;}
	.st1{fill:#ED8B00;}
	.st2{fill:#FBB040;}
	.st3{fill:#EAEAE9;}
	.st4{fill:#123155;}
	.st5{fill:#FAFAFA;}
	.st6{fill:#BCBCBC;}
	.st7{fill:#123155;stroke:#123155;}
	.st8{fill:none;stroke:#ED8B00;stroke-width:0;stroke-linecap:round;stroke-linejoin:round;}
	.st9{fill:#D1D1D1;}
	.st10{fill:#FFFFFF;}
</style>
<g>
	<g>
		<path class="st3" d="M19.3,66.4v65L75.3,150V47.8L19.3,66.4z"/>
		<path class="st9" d="M74.7,47.8L69.1,85l5.6,65l56.1-18.6v-65L74.7,47.8z"/>
		<g>
			<g>
				<path class="st4" d="M80.3,56.4l0.6,1.8L79,62.5l3.2,3.7l4.4-1.2l1.6,0.8l1.7,4.4l4.9,0.4l2.2-4l1.7-0.7l4.3,1.9l3.7-3.2
					l-1.2-4.4l0.8-1.6l4.3-1.7l0.4-4.9l-4-2.2l-0.6-1.7l1.9-4.3l-3.2-3.7l-4.4,1.2l-1.6-0.8L97.5,36l-4.9-0.4l-2.2,4l-1.7,0.6
					l-4.3-1.9l-3.7,3.2l1.2,4.4L81,47.6l-4.3,1.7l-0.4,4.9L80.3,56.4z"/>
				<g id="XMLID_2_">
					<g>
						<path class="st10" d="M94.3,46.5c-3.6-0.3-6.8,2.5-7.1,6.2c-0.3,3.7,2.5,6.8,6.2,7.1c3.6,0.3,6.8-2.5,7.1-6.2
							C100.7,49.9,97.9,46.7,94.3,46.5z"/>
					</g>
				</g>
			</g>
			<g>
				<path class="st0" d="M44.6,67.4l1.1,2.5l-2,6.5l5.3,4.9l6.3-2.5l2.5,0.9l3.2,6.1l7.2-0.2l2.6-6.2l2.4-1.2l6.6,2l4.9-5.3
					l-2.5-6.3l0.9-2.5l5.9-3.2l-0.2-7.2l-6.2-2.6l-1.1-2.4l2-6.5l-5.3-4.9l-6.3,2.5L69.4,41l-3.1-6l-7.2,0.2l-2.6,6.2l-2.4,1.1
					l-6.5-2l-4.9,5.3l2.5,6.3l-0.9,2.5l-6,3.1l0.2,7.2L44.6,67.4z"/>
				<g id="XMLID_1_">
					<g>
						<path class="st10" d="M63.3,50.7c-5.3,0.2-9.5,4.7-9.3,10.1c0.2,5.3,4.7,9.5,10.1,9.3c5.3-0.2,9.5-4.7,9.3-10.1
							C73.1,54.7,68.6,50.5,63.3,50.7z"/>
					</g>
				</g>
			</g>
		</g>
		<path class="st9" d="M19.3,66.4v65L75.3,150V85L19.3,66.4z"/>
		<path class="st6" d="M72.6,85.6v65l56.1-18.6v-65L72.6,85.6z"/>
		<path class="st3" d="M91.4,110.6L75.3,85l56.1-18.6L147.5,92L91.4,110.6z"/>
		<path class="st3" d="M58.6,110.6L74.7,85L18.6,66.4L2.5,92L58.6,110.6z"/>
	</g>
	<g>
		<path class="st1" d="M67.4,0h6.3v17.5h-6.3V0z"/>
		<path class="st2" d="M94.7,3.5l5.9,2.3L94.3,22l-5.9-2.3L94.7,3.5z"/>
		<path class="st2" d="M52,19.7L46.1,22L39.7,5.8l5.9-2.3L52,19.7z"/>
		<g>
			<path class="st1" d="M33,29.2l-4.1,4.8L15.6,22.7l4.1-4.8L33,29.2z"/>
			<path class="st1" d="M120.7,17.9l4.1,4.8l-13.3,11.3l-4.1-4.8L120.7,17.9z"/>
		</g>
	</g>
	<g>
		<circle class="st0" cx="127.4" cy="129.9" r="20.1"/>
		<path class="st10" d="M134.9,120.9l-10,10l-5-5l-4,4l9,9l14-14L134.9,120.9z"/>
	</g>
</g>
</svg>
