<?xml version="1.0" encoding="utf-8"?>
<!-- Generator: Adobe Illustrator 21.1.0, SVG Export Plug-In . SVG Version: 6.00 Build 0)  -->
<svg version="1.1" id="Layer_1" xmlns:sketch="http://www.bohemiancoding.com/sketch/ns"
	 xmlns="http://www.w3.org/2000/svg" xmlns:xlink="http://www.w3.org/1999/xlink" x="0px" y="0px" viewBox="0 0 150 150"
	 style="enable-background:new 0 0 150 150;" xml:space="preserve">
<style type="text/css">
	.st0{fill:#005EB8;}
	.st1{fill:#ED8B00;}
	.st2{fill:#FBB040;}
	.st3{fill:#EAEAE9;}
	.st4{fill:#123155;}
	.st5{fill:#FAFAFA;}
	.st6{fill:#BCBCBC;}
	.st7{fill:#123155;stroke:#123155;}
	.st8{fill:none;stroke:#ED8B00;stroke-width:0;stroke-linecap:round;stroke-linejoin:round;}
	.st9{fill:#D1D1D1;}
	.st10{fill:#FFFFFF;}
</style>
<g>
	<path class="st0" d="M75.7,1.5L85,8.4c0.3,0.2,0.6,0.3,0.9,0.2l11.2-2.8c0.5-0.1,1,0.1,1.2,0.5l6,9.9c0.2,0.3,0.5,0.5,0.8,0.5
		l11.4,1.7c0.5,0.1,0.9,0.5,1,1l1.7,11.4c0.1,0.3,0.2,0.6,0.5,0.8l9.9,6c0.4,0.3,0.6,0.8,0.5,1.2l-2.8,11.2c-0.1,0.3,0,0.7,0.2,0.9
		l6.9,9.3c0.3,0.4,0.3,0.9,0,1.3l-6.9,9.3c-0.2,0.3-0.3,0.6-0.2,0.9l2.8,11.2c0.1,0.5-0.1,1-0.5,1.2l-9.9,6
		c-0.3,0.2-0.5,0.5-0.5,0.8l-1.7,11.4c-0.1,0.5-0.5,0.9-1,1l-11.4,1.7c-0.3,0.1-0.6,0.2-0.8,0.5l-6,9.9c-0.3,0.4-0.8,0.6-1.2,0.5
		l-11.2-2.8c-0.3-0.1-0.7,0-0.9,0.2l-9.3,6.9c-0.4,0.3-0.9,0.3-1.3,0l-9.3-6.9c-0.3-0.2-0.6-0.3-0.9-0.2l-11.2,2.8
		c-0.5,0.1-1-0.1-1.2-0.5l-6-9.9c-0.2-0.3-0.5-0.5-0.8-0.5l-11.4-1.7c-0.5-0.1-0.9-0.5-1-1l-1.7-11.4c-0.1-0.3-0.2-0.6-0.5-0.8
		l-9.9-6c-0.4-0.3-0.6-0.8-0.5-1.2l2.8-11.2c0.1-0.3,0-0.7-0.2-0.9l-6.9-9.3c-0.3-0.4-0.3-0.9,0-1.3l6.9-9.3
		c0.2-0.3,0.3-0.6,0.2-0.9l-2.8-11.2c-0.1-0.5,0.1-1,0.5-1.2l9.9-6c0.3-0.2,0.5-0.5,0.5-0.8l1.7-11.4c0.1-0.5,0.5-0.9,1-1l11.4-1.7
		c0.3-0.1,0.6-0.2,0.8-0.5l6-9.9c0.3-0.4,0.8-0.6,1.2-0.5l11.2,2.8c0.3,0.1,0.7,0,0.9-0.2l9.3-6.9C74.7,1.2,75.3,1.2,75.7,1.5z"/>
</g>
<g>
	<polygon class="st1" points="83.6,150.3 94.3,141 108.3,142.8 84.2,63.1 59.5,70.5 	"/>
	<polygon class="st2" points="66.2,150.3 55.8,140.7 41.7,142.3 67.6,63.1 92.1,71.1 	"/>
</g>
<circle class="st3" cx="75" cy="61" r="44"/>
<g>
	<path class="st5" d="M75,91C58.5,91,45.1,77.5,45.1,61S58.5,31.1,75,31.1s29.9,13.4,29.9,29.9S91.5,91,75,91z"/>
	<path class="st4" d="M75,34.1c14.9,0,26.9,12.1,26.9,26.9S89.9,88,75,88S48.1,75.9,48.1,61S60.1,34.1,75,34.1 M75,28.1
		c-18.2,0-32.9,14.8-32.9,32.9S56.8,94,75,94s32.9-14.8,32.9-32.9S93.2,28.1,75,28.1L75,28.1z"/>
</g>
<path class="st0" d="M83.3,51L72.2,62.1l-5.6-5.6L62.2,61l10,10l15.5-15.6L83.3,51z"/>
</svg>
