<svg id="design" xmlns="http://www.w3.org/2000/svg" viewBox="0 0 100 100"><defs><style>.cls-1{fill:#e5f3fd;}.cls-2{fill:#fed102;}.cls-3{fill:#54a4f3;}.cls-4{fill:#91caf9;}</style></defs><rect class="cls-1" width="100" height="100" rx="10"/><path class="cls-2" d="M56.66,51.57H75a0,0,0,0,1,0,0V75a0,0,0,0,1,0,0H51.55a0,0,0,0,1,0,0V56.68A5.11,5.11,0,0,1,56.66,51.57Z" transform="translate(126.55 126.54) rotate(180)"/><path class="cls-2" d="M30.11,25H48.45a0,0,0,0,1,0,0v23.4a0,0,0,0,1,0,0H25a0,0,0,0,1,0,0V30.14A5.11,5.11,0,0,1,30.11,25Z"/><path class="cls-3" d="M56.66,51.57H75a0,0,0,0,1,0,0V75a0,0,0,0,1,0,0H51.55a0,0,0,0,1,0,0V56.68A5.11,5.11,0,0,1,56.66,51.57Z" transform="translate(126.55 126.54) rotate(180)"/><path class="cls-3" d="M30.11,25H48.45a0,0,0,0,1,0,0v23.4a0,0,0,0,1,0,0H25a0,0,0,0,1,0,0V30.14A5.11,5.11,0,0,1,30.11,25Z"/><path class="cls-4" d="M56.65,25H75a0,0,0,0,1,0,0v23.4a0,0,0,0,1,0,0H51.54a0,0,0,0,1,0,0V30.14A5.11,5.11,0,0,1,56.65,25Z" transform="translate(100 -26.54) rotate(90)"/><path class="cls-4" d="M30.11,51.57H48.46a0,0,0,0,1,0,0V75a0,0,0,0,1,0,0H25a0,0,0,0,1,0,0V56.68A5.11,5.11,0,0,1,30.11,51.57Z" transform="translate(-26.54 100) rotate(-90)"/><path class="cls-1" d="M32.28,38.77a1.52,1.52,0,0,1-1.7-1.52,1.69,1.69,0,0,1,1.66-1.53c3,0,4.93,0,7.89,0a1.5,1.5,0,0,1,1.69,1.63c0,.91-.63,1.41-1.75,1.42Z"/><path class="cls-1" d="M37.73,41.18a1.51,1.51,0,0,1-1.52,1.7,1.69,1.69,0,0,1-1.52-1.67c0-3,0-4.93,0-7.88a1.5,1.5,0,0,1,1.62-1.69c.92,0,1.42.63,1.43,1.74Z"/><path class="cls-1" d="M58.37,38.25c-1.06,0-1.71-.6-1.7-1.51a1.69,1.69,0,0,1,1.66-1.53c3,0,6.89,0,9.85,0a1.5,1.5,0,0,1,1.69,1.62c0,.92-.63,1.42-1.75,1.43C66.69,38.26,59.86,38.27,58.37,38.25Z"/><path class="cls-1" d="M32.34,62.08a1.51,1.51,0,0,1-.13-2.27,1.69,1.69,0,0,1,2.26.09C36.57,62,38,63.37,40,65.48a1.49,1.49,0,0,1,.05,2.34c-.66.64-1.44.56-2.24-.23C36.83,66.59,33.39,63.15,32.34,62.08Z"/><path class="cls-1" d="M34.49,67.64a1.5,1.5,0,0,1-2.27.13,1.69,1.69,0,0,1,.09-2.26c2.08-2.1,3.47-3.5,5.58-5.57a1.49,1.49,0,0,1,2.34,0c.64.66.56,1.45-.23,2.24Z"/><path class="cls-1" d="M66.83,63.42a3.53,3.53,0,0,0-2.32-1.34V59.93a1.11,1.11,0,0,1,.64,1c.12,1,.78,1.3,1.35,1.24a1.2,1.2,0,0,0,1-1.47,3.31,3.31,0,0,0-1.84-2.8,5.51,5.51,0,0,0-1-.37l-.2-.06v-.09a1.47,1.47,0,0,0-.33-1.13,1.19,1.19,0,0,0-.91-.29c-1.15,0-1.16,1-1.16,1.48v.05a3.52,3.52,0,0,0,0,7v2.14a1.1,1.1,0,0,1-.68-1c-.09-.82-.57-1.27-1.31-1.21A1.22,1.22,0,0,0,59,65.83,3.52,3.52,0,0,0,61.59,69l.48.1c0,.16,0,.31,0,.47a1.17,1.17,0,0,0,1.19,1.09h0a1.17,1.17,0,0,0,1.15-1.17c0-.13,0-.27,0-.4a3.48,3.48,0,0,0,3.07-3.32A3.41,3.41,0,0,0,66.83,63.42Zm-1.68,2.25a1,1,0,0,1-.65.9v-2A1,1,0,0,1,65.15,65.67Zm-3.76-4.74A1.08,1.08,0,0,1,62,60v2A1.07,1.07,0,0,1,61.39,60.93Z"/></svg>