<svg id="design" xmlns="http://www.w3.org/2000/svg" viewBox="0 0 100 100"><defs><style>.cls-1,.cls-4{fill:#cff9dc;}.cls-2{fill:#17c963;}.cls-3{fill:#7eed9b;}.cls-4{stroke:#cff9dc;stroke-linecap:round;stroke-linejoin:round;}</style></defs><path class="cls-1" d="M10,0H90a10,10,0,0,1,10,10V90a10,10,0,0,1-10,10H10A10,10,0,0,1,0,90V10A10,10,0,0,1,10,0Z"/><path class="cls-2" d="M78.42,58.16a3,3,0,0,1-2.11,2.13,11.88,11.88,0,0,1-1.63.15V49.14a2.92,2.92,0,0,1,3.52,1.68c.08.19.15.38.22.57Z"/><path class="cls-3" d="M50,38.63c5.62,0,11.24,0,16.86,0a5.65,5.65,0,0,1,5.69,4.42,5.88,5.88,0,0,1,.16,1.32q0,10.35,0,20.69a5.64,5.64,0,0,1-4.83,5.69,8.47,8.47,0,0,1-1.33.07H46.23a3,3,0,0,0-1.71.52q-4.44,3-8.91,5.92a1.61,1.61,0,0,1-1.07.23c-.46-.08-.63-.51-.62-1V72c0-.82-.33-1.16-1.12-1.2A5.67,5.67,0,0,1,27.28,65c0-3.27,0-6.54,0-9.82V44.67a5.71,5.71,0,0,1,6.06-6Z"/><path class="cls-2" d="M51,36.71h-1.9v-.6c0-1.22,0-2.44,0-3.66a.61.61,0,0,0-.5-.7,4.48,4.48,0,0,1-3.24-4,4.71,4.71,0,0,1,7.16-4.53,4.42,4.42,0,0,1,2.22,4.41,4.51,4.51,0,0,1-3.19,4.06.7.7,0,0,0-.57.81c0,1.19,0,2.37,0,3.55Z"/><path class="cls-2" d="M25.37,49.1V60.32a2.92,2.92,0,0,1-3.76-2.91c0-1.7.07-3.41,0-5.1A3,3,0,0,1,25.37,49.1Z"/><path class="cls-1" d="M56.65,50.89a4.73,4.73,0,1,1,4.71,4.72A4.71,4.71,0,0,1,56.65,50.89Z"/><path class="cls-1" d="M43.37,50.87a4.73,4.73,0,1,1-4.72-4.71A4.7,4.7,0,0,1,43.37,50.87Z"/><path class="cls-2" d="M40.65,50.88a2,2,0,1,1-2-2A2,2,0,0,1,40.65,50.88Z"/><path class="cls-2" d="M63.38,50.88a2,2,0,1,1-2-2A2,2,0,0,1,63.38,50.88Z"/><path class="cls-4" d="M50,63.26a7.11,7.11,0,0,1-4.41-1.21,6.13,6.13,0,0,1-1.07-1,.91.91,0,0,1,.17-1.29.87.87,0,0,1,1.25.1c1.27,1.83,5.13,1.94,6.89,1A5.24,5.24,0,0,0,54,59.92a1,1,0,0,1,1.38-.18,1,1,0,0,1,0,1.43A6.38,6.38,0,0,1,51,63.25C50.64,63.28,50.32,63.26,50,63.26Z"/></svg>