<svg id="design" xmlns="http://www.w3.org/2000/svg" viewBox="0 0 100 100"><defs><style>.cls-1{fill:#e5f3fd;}.cls-2{fill:#54a4f3;}.cls-3{fill:#91caf9;}</style></defs><path class="cls-1" d="M10,0H90a10,10,0,0,1,10,10V90a10,10,0,0,1-10,10H10A10,10,0,0,1,0,90V10A10,10,0,0,1,10,0Z"/><path class="cls-2" d="M44.14,71.58h-14a11.6,11.6,0,0,1-2.88-.18,6.22,6.22,0,0,1-4.78-5.92V29.65a6.17,6.17,0,0,1,6.1-6.17H52.94a6,6,0,0,1,6.11,5.85c.18,6.07.05,12.15.05,18.31a30.71,30.71,0,0,0-7.25,1.64A11.44,11.44,0,0,0,48.65,38a10.46,10.46,0,0,0-6-3,2.57,2.57,0,0,0-.17,1.37v9.33a2.89,2.89,0,0,1-1,2.28c-2.22,2.17-4.41,4.39-6.61,6.59-.27.27-.53.56-.87.93a11.26,11.26,0,0,0,10.08,1.7ZM39,35.14c-3.61.12-7.62,3.39-9,7.26C28.71,46.05,29.48,51,31.73,53q3.51-3.52,7-7A1.31,1.31,0,0,0,39,44.9V35.14Z"/><path class="cls-3" d="M62.82,60.37c-4.57,0-8.67-.35-12.57-2a5.48,5.48,0,0,1-2-1.36,1.53,1.53,0,0,1-.3-2.13,2.13,2.13,0,0,1,.3-.3,8.91,8.91,0,0,1,4.46-2.2,41.71,41.71,0,0,1,14.34-.9A26.28,26.28,0,0,1,74.34,53a8.42,8.42,0,0,1,2.07,1.11,1.88,1.88,0,0,1,0,3.35,14.33,14.33,0,0,1-5.93,2.21A34.55,34.55,0,0,1,62.82,60.37Z"/><path class="cls-3" d="M47.61,61.18a42.83,42.83,0,0,0,29.81,0v2.73a2.31,2.31,0,0,1-1.26,1.76,14.33,14.33,0,0,1-5.81,2.07,42.29,42.29,0,0,1-17.21-.37,14,14,0,0,1-3.79-1.43,3,3,0,0,1-1.74-3C47.65,62.35,47.61,61.74,47.61,61.18Z"/><path class="cls-3" d="M47.74,69.27a42.78,42.78,0,0,0,29.55,0c.64,2.81-.07,4.19-2.66,5.28a26.64,26.64,0,0,1-9,1.82,37.43,37.43,0,0,1-14.15-1.44,11,11,0,0,1-1.2-.47C47.57,73.18,47.34,72.48,47.74,69.27Z"/></svg>