<svg id="design" xmlns="http://www.w3.org/2000/svg" viewBox="0 0 100 100"><defs><style>.cls-1{fill:#ffe9e9;}.cls-2{fill:#fc796b;}.cls-3{fill:#ffb5a9;}</style></defs><rect class="cls-1" width="100" height="100" rx="10"/><path class="cls-2" d="M50,75H31.17A5.76,5.76,0,0,1,25,68.85q0-5.37,0-10.74a3.68,3.68,0,0,1,3.86-4c1.75,0,3.51,0,5.27,0A3.67,3.67,0,0,1,38,57c.57,1.82,1.1,3.67,1.67,5.49a2.57,2.57,0,0,0,2.71,2.08q7.66,0,15.32,0a2.58,2.58,0,0,0,2.75-2.16c.53-1.71,1-3.42,1.54-5.13.67-2.24,1.87-3.15,4.2-3.15,1.62,0,3.25,0,4.88,0a3.69,3.69,0,0,1,4,4Q75,63.58,75,69a5.71,5.71,0,0,1-6,6C62.69,75,56.35,75,50,75Z"/><path class="cls-3" d="M50,25H62.1a6.26,6.26,0,0,1,6.64,6.67c0,5.27,0,10.54,0,15.81a2.3,2.3,0,0,1-1.09,2.24,2,2,0,0,1-3-1.93c0-3.81,0-7.61,0-11.42V31.79A2.34,2.34,0,0,0,62,29.13H38a2.33,2.33,0,0,0-2.62,2.66c0,5.34,0,10.67,0,16a2.11,2.11,0,0,1-1.42,2.1,2,2,0,0,1-2.25-.75,2.24,2.24,0,0,1-.44-1.46c0-5.53,0-11.07,0-16.6A6.23,6.23,0,0,1,37.4,25C41.6,25,45.8,25,50,25Z"/><path class="cls-2" d="M50,39.61h8c1.54,0,2.39.77,2.38,2.08s-.89,2.06-2.42,2.06H41.86a2,2,0,0,1-2.1-1.29,2,2,0,0,1,.44-2.26,2.28,2.28,0,0,1,1.8-.59Z"/><path class="cls-2" d="M45.85,37.5c-1.33,0-2.66,0-4,0a2,2,0,0,1-2.24-2,2,2,0,0,1,2.25-2.09q4,0,8,0a2.09,2.09,0,0,1,2.23,2.06,2.12,2.12,0,0,1-2.25,2.07C48.51,37.52,47.18,37.5,45.85,37.5Z"/></svg>