<svg id="design" xmlns="http://www.w3.org/2000/svg" viewBox="0 0 100 100"><defs><style>.cls-1{fill:#ffe9e9;}.cls-2{fill:#ffb5a9;}.cls-3{fill:#fc796b;}</style></defs><rect class="cls-1" width="100" height="100" rx="10"/><path class="cls-2" d="M29.15,66.17c0-1.69,0-3.38,0-5.07A1,1,0,0,0,28.45,60c-.48-.2-.94-.45-1.39-.69a3.62,3.62,0,0,1-2-3.4c0-2.86,0-5.73,0-8.59a7.72,7.72,0,0,1,7.63-7.67c1.79,0,3.58,0,5.36,0a7.74,7.74,0,0,1,7.83,7.69c.08,2.86,0,5.72,0,8.58a3.52,3.52,0,0,1-2.42,3.55c-1.53.55-1.88,1.51-1.81,3,.12,2.85,0,5.72,0,8.58A3.63,3.63,0,0,1,37.72,75c-1.56,0-3.12,0-4.69,0a3.66,3.66,0,0,1-3.87-3.85C29.13,69.48,29.15,67.83,29.15,66.17Z"/><path class="cls-3" d="M68.75,58.31c2,.2,4.19-.47,5.58,1.53,1,1.44.6,3.06.66,4.7H64.16c-.12-1-.44-2.06-1.72-2s-1.52,1-1.54,2H50c0-1.81-.42-3.61,1-5.12s3.34-.9,5.07-1.12a2.88,2.88,0,0,0,.16-1.53A3.61,3.61,0,0,1,60,53.12h5a3.61,3.61,0,0,1,3.79,3.81C68.76,57.35,68.75,57.77,68.75,58.31Zm-9.3,0h6.11c0-.26.06-.45.07-.64,0-1.38,0-1.4-1.39-1.4h-3.5c-1.36,0-1.4,0-1.36,1.43C59.39,57.87,59.42,58.06,59.45,58.29Z"/><path class="cls-3" d="M50,67.79H60.82c.18,1,.46,2,1.8,1.93,1.1-.07,1.44-.86,1.49-1.9H75a15.35,15.35,0,0,1-.18,4.78A3.52,3.52,0,0,1,71.51,75q-9,0-18.06,0A3.61,3.61,0,0,1,50,71.8c-.08-1,0-2,0-2.92Z"/><path class="cls-2" d="M41.64,31.34a6.19,6.19,0,0,1-6.34,6.15A6.25,6.25,0,0,1,35.49,25,6.2,6.2,0,0,1,41.64,31.34Z"/><path class="cls-3" d="M59.45,58.29c0-.23-.06-.42-.07-.61,0-1.38,0-1.43,1.36-1.43h3.5c1.39,0,1.42,0,1.39,1.4,0,.19,0,.38-.07.64Z"/></svg>