<svg id="design" xmlns="http://www.w3.org/2000/svg" viewBox="0 0 100 100"><defs><style>.cls-1{fill:#fff9dd;}.cls-2{fill:#ffd546;}.cls-3{fill:#f7ba0f;}</style></defs><rect class="cls-1" width="100" height="100" rx="10"/><path class="cls-2" d="M71.93,27.9V25.2a2.7,2.7,0,0,0-2.7-2.7H36a7.93,7.93,0,0,0-7.93,7.93V69.57A7.93,7.93,0,0,0,36,77.5H69.23a2.7,2.7,0,0,0,2.7-2.7v-41h-3.2V27.9Zm-8.77,5.9H36.59a2.94,2.94,0,0,1-3-3.11,3.07,3.07,0,0,1,3.11-2.79H63.16Z"/><circle class="cls-1" cx="50" cy="55.57" r="13.29"/><circle class="cls-3" cx="50" cy="49.84" r="1.77"/><rect class="cls-3" x="48.23" y="54.45" width="3.53" height="8.61" rx="1.77"/></svg>