<?xml version="1.0" encoding="utf-8"?>
<!-- Generator: Adobe Illustrator 24.2.1, SVG Export Plug-In . SVG Version: 6.00 Build 0)  -->
<svg version="1.1" id="design" xmlns="http://www.w3.org/2000/svg" xmlns:xlink="http://www.w3.org/1999/xlink" x="0px" y="0px"
	 viewBox="0 0 100 100" style="enable-background:new 0 0 100 100;" xml:space="preserve">
<style type="text/css">
	.st0{fill:#FFF9DD;}
	.st1{fill:#F7BA0F;}
	.st2{fill:#FFD546;}
</style>
<path class="st0" d="M10,0h80c5.5,0,10,4.5,10,10v80c0,5.5-4.5,10-10,10H10c-5.5,0-10-4.5-10-10V10C0,4.5,4.5,0,10,0z"/>
<path class="st1" d="M34.3,34.1h2.2c1.8,0,3.4,1.2,3.9,3c0.4-0.4,0.7-0.9,0.9-1.4c1,2.5,3.9,3.7,6.4,2.7c1-0.4,1.8-1.1,2.3-2
	c2,2.2,5.5,2.4,7.7,0.4c2.2-2,2.4-5.5,0.4-7.7c-1-1.1-2.5-1.8-4.1-1.8c-0.6,0-1.2,0.1-1.7,0.3c-1.4-1.4-3.7-1.5-5.2-0.2
	c-1.2-2.6-4.2-3.8-6.8-2.6c-1.9,0.8-3.1,2.7-3.1,4.7c0,0.5,0.1,1.1,0.3,1.6C35.9,31.2,34.5,32.5,34.3,34.1z"/>
<path class="st2" d="M73.5,68.9h-1.2V48.6c0-0.4-0.3-0.7-0.7-0.7c-0.1,0-0.2,0-0.3,0.1l-9.2,5.1v-4.5c0-0.4-0.3-0.7-0.6-0.7
	c-0.2,0-0.3,0-0.5,0.1l-9.2,5.1v-4.5c0-0.4-0.3-0.7-0.7-0.7c-0.1,0-0.2,0-0.3,0.1l-9.2,5.1v15.8h-2.8l-1.4-30.8
	c0-0.5-0.4-0.9-0.9-0.8h-4.1c-0.5,0-0.9,0.4-0.9,0.8l-1.4,30.8h-1.6c-0.6,0-1.1,0.5-1.1,1.1c0,0,0,0,0,0v3.2c0,0.6,0.5,1.1,1.1,1.1
	c0,0,0,0,0,0h45c0.6,0,1.1-0.5,1.1-1.1c0,0,0,0,0,0V70C74.6,69.4,74.1,68.9,73.5,68.9C73.5,68.9,73.5,68.9,73.5,68.9z M59.3,58.6
	c0-0.5,0.4-0.9,0.9-0.9h5.4c0.5,0,0.9,0.4,0.9,0.9V64c0,0.5-0.4,0.9-0.9,0.9c0,0,0,0,0,0h-5.4c-0.5,0-0.9-0.4-0.9-0.9l0,0V58.6z
	 M47.4,58.6c0-0.5,0.4-0.9,0.9-0.9h5.3c0.5,0,0.9,0.4,0.9,0.9V64c0,0.5-0.4,0.9-0.9,0.9c0,0,0,0,0,0h-5.4c-0.5,0-0.9-0.4-0.9-0.9
	l0,0L47.4,58.6z"/>
</svg>
