<svg id="design" xmlns="http://www.w3.org/2000/svg" viewBox="0 0 100 100"><defs><style>.cls-1{fill:#cff9dc;}.cls-2{fill:#7eed9b;}.cls-3{fill:#17c963;}</style></defs><path class="cls-1" d="M10,0H90a10,10,0,0,1,10,10V90a10,10,0,0,1-10,10H10A10,10,0,0,1,0,90V10A10,10,0,0,1,10,0Z"/><path class="cls-2" d="M50,25H62.5c4.3,0,7,2.8,7,7v4.7a1.21,1.21,0,0,0,.8,1.3,22.47,22.47,0,0,1,2.1,1.2A6.44,6.44,0,0,1,76,45.3V68.2a6.59,6.59,0,0,1-6.8,6.9H30.7a6.54,6.54,0,0,1-6.8-6.9V45.5c0-2.9,1.2-5.2,3.9-6.3,2.1-.9,3-2.1,2.7-4.4a18.73,18.73,0,0,1,0-4.1,6.59,6.59,0,0,1,6.6-5.6C41.5,25,45.7,25,50,25Zm0,4.4H37.4c-1.8,0-2.6.8-2.6,2.6V50.2a1.21,1.21,0,0,0,.8,1.3c4.2,2.2,8.5,4.4,12.7,6.6a3.63,3.63,0,0,0,3.5,0l12.6-6.6a1.42,1.42,0,0,0,.9-1.4v-18c0-2-.7-2.7-2.8-2.7ZM69.6,42.7v6c2.2-.8,2.3-1,2.1-3.7C71.7,43.8,71,43.1,69.6,42.7Zm-39.2,0c-1.9.6-2.3,1.3-2.2,4.3,0,1.4,1.4,1.2,2.2,1.9Z"/><path class="cls-3" d="M41.4,45.1c-.7-.3-1.3-.6-2-.1a1.31,1.31,0,0,1-1.9-1.2,36.85,36.85,0,0,1,0-4.7A1.36,1.36,0,0,1,39.6,38a1.31,1.31,0,0,0,1.1.2c5.2-1.5,10.5-3,15.8-4.5.3-.1.6-.2.7-.5a1.31,1.31,0,0,1,1.5-.9,1.44,1.44,0,0,1,1.1,1.6V49.1a1.55,1.55,0,0,1-1,1.7c-.8.3-1.3-.1-1.6-.8a.75.75,0,0,0-.7-.4c-2.1-.6-4.2-1.2-6.2-1.8-.5-.2-.7,0-.9.5a4.11,4.11,0,0,1-7.1,1.2C41.1,48.1,41.2,46.7,41.4,45.1Zm4,2.9h.4c.4-.2.9-.5.9-1.1s-.5-.5-.8-.6L45,46c-.3-.1-.6-.3-.8,0a.94.94,0,0,0-.1.9A1.16,1.16,0,0,0,45.4,48Z"/></svg>