<svg id="design" xmlns="http://www.w3.org/2000/svg" viewBox="0 0 100 100"><defs><style>.cls-1{fill:#e5f3fd;}.cls-2{fill:#91caf9;}.cls-3{fill:#54a4f3;}.cls-4{fill:none;stroke:#54a4f3;stroke-linecap:round;stroke-miterlimit:10;stroke-width:3.5px;}</style></defs><path class="cls-1" d="M10,0H90a10,10,0,0,1,10,10V90a10,10,0,0,1-10,10H10A10,10,0,0,1,0,90V10A10,10,0,0,1,10,0Z"/><path class="cls-2" d="M25.22,58.07a3.66,3.66,0,0,1,1.17-2.81c.86-.82,1.73-1.62,2.61-2.41a1.13,1.13,0,0,0,.38-1.06,17.75,17.75,0,0,1,0-3.34,1.6,1.6,0,0,0-.62-1.56c-.82-.7-1.62-1.43-2.39-2.19a3.63,3.63,0,0,1-.72-4.39c1.22-2.26,2.51-4.48,3.85-6.67a3.6,3.6,0,0,1,4.2-1.43c1,.28,2.08.6,3.09,1a1.53,1.53,0,0,0,1.59-.24,8.71,8.71,0,0,1,2.08-1.25,2.63,2.63,0,0,0,1.82-2.39,18.66,18.66,0,0,1,.62-2.66A3.51,3.51,0,0,1,46.34,24c2.44,0,4.87,0,7.31,0a3.5,3.5,0,0,1,3.47,2.61c.35,1.16.58,2.35.84,3.54a1.49,1.49,0,0,0,1,1.18A13.43,13.43,0,0,1,61.8,33a1.31,1.31,0,0,0,1.32.18c1-.35,2-.63,3-.93a3.75,3.75,0,0,1,4.7,1.77q1.68,2.84,3.29,5.71a3.87,3.87,0,0,1-.82,5.29c-.86.82-2.07,1.47-2.51,2.46s.06,2.33-.13,3.47a2.46,2.46,0,0,0,1.08,2.57,23.25,23.25,0,0,1,1.88,1.7,3.64,3.64,0,0,1,.74,4.47q-1.8,3.35-3.8,6.58a3.37,3.37,0,0,1-4.25,1.43c-2.53-1.09-4.74-1.13-7,.67-.71.58-1.33,1-1.47,2a20.07,20.07,0,0,1-.7,3A3.53,3.53,0,0,1,53.61,76q-3.6,0-7.2,0a3.51,3.51,0,0,1-3.54-2.65c-.33-1.13-.56-2.3-.81-3.45a1.56,1.56,0,0,0-1-1.25,6.84,6.84,0,0,1-1.94-1.09,2.87,2.87,0,0,0-3.34-.42,8.07,8.07,0,0,1-3.33.79,3.44,3.44,0,0,1-3.05-1.68c-1.26-2.12-2.48-4.27-3.7-6.41A3.17,3.17,0,0,1,25.22,58.07Z"/><path class="cls-1" d="M50,58.42c-1.31,0-2.62,0-3.93,0a.9.9,0,0,1-1-.71,4.25,4.25,0,0,0-1.58-2.16A10.32,10.32,0,0,1,42,40.78c4.2-4.72,11-5.07,15.31-.8a10.33,10.33,0,0,1-.68,15.57A4.69,4.69,0,0,0,55,57.73a.9.9,0,0,1-1,.7C52.64,58.4,51.3,58.42,50,58.42Z"/><path class="cls-3" d="M54.71,60.73c.12,1.19.27,2.31-.54,3.27a2.57,2.57,0,0,1-2.08,1c-1.24,0-2.47,0-3.71,0-2.07,0-3.13-1-3.16-3.14a1.68,1.68,0,0,1,.16-1.12Z"/><line class="cls-4" x1="50" y1="51.05" x2="50" y2="54.6"/><line class="cls-4" x1="47.72" y1="50.33" x2="52.27" y2="50.33"/></svg>